<svg viewBox="0 0 256 256" xmlns="http://www.w3.org/2000/svg" role="img" aria-label="Map pin">
<defs><filter id="p-map-pin-m" x="-16%" y="-16%" width="132%" height="132%">
<feTurbulence type="fractalNoise" baseFrequency="0.0240 0.0310" numOctaves="2" seed="437" result="w"/>
<feDisplacementMap in="SourceGraphic" in2="w" scale="2.8" xChannelSelector="R" yChannelSelector="G" result="m"/>
<feTurbulence type="fractalNoise" baseFrequency="0.7" numOctaves="2" seed="817" result="g"/>
<feDisplacementMap in="m" in2="g" scale="0.9" xChannelSelector="R" yChannelSelector="G"/>
</filter>
<filter id="q-map-pin-m" x="-18%" y="-18%" width="136%" height="136%">
<feTurbulence type="fractalNoise" baseFrequency="0.0180 0.0260" numOctaves="2" seed="817" result="w"/>
<feDisplacementMap in="SourceGraphic" in2="w" scale="5.0" xChannelSelector="R" yChannelSelector="G"/>
</filter></defs>
<style>
.ink{fill:none;stroke:#141413;stroke-width:11;stroke-linecap:round;stroke-linejoin:round}
.ink-thin{fill:none;stroke:#141413;stroke-width:8.5;stroke-linecap:round;stroke-linejoin:round}
.solid{fill:#141413}
.paper{fill:#faf9f5}
.acc{fill:var(--acc,#d97757)}
.acc-line{fill:none;stroke:var(--acc,#d97757);stroke-width:8.5;stroke-linecap:round;stroke-linejoin:round}
</style>
<g filter="url(#q-map-pin-m)" opacity=".95"></g>
<g filter="url(#p-map-pin-m)"><path class="ink" d="M129.0,26.2 C145.0,26.2 164.5,33.4 175.8,44.2 C187.2,55.0 196.5,75.1 197.0,90.8 C197.5,106.5 189.9,116.0 178.6,138.6 C167.2,161.2 145.7,226.4 128.9,226.3 C112.2,226.3 89.6,160.7 78.2,138.2 C66.8,115.6 60.0,106.7 60.3,91.0 C60.5,75.3 68.3,54.9 79.7,44.1 C91.2,33.3 113.0,26.2 129.0,26.2 Z"/><path class="ink" d="M158.3,94.0 C158.5,97.8 157.5,102.6 156.0,106.2 C154.6,109.7 152.7,112.9 149.8,115.4 C147.0,118.0 142.6,120.1 139.0,121.4 C135.3,122.7 131.8,123.3 128.0,123.3 C124.2,123.3 119.9,122.7 116.4,121.4 C112.9,120.1 109.8,118.1 107.0,115.5 C104.3,112.9 101.5,109.3 99.9,105.8 C98.4,102.2 97.7,98.1 97.7,94.2 C97.7,90.4 98.5,86.4 100.0,82.8 C101.5,79.3 104.0,75.7 106.7,72.9 C109.4,70.1 112.7,67.5 116.2,66.1 C119.7,64.7 123.6,64.3 127.6,64.3 C131.6,64.4 136.7,65.0 140.2,66.3 C143.7,67.5 146.3,69.2 148.7,72.0 C151.2,74.9 153.4,79.5 155.0,83.1 C156.6,86.8 158.2,90.2 158.3,94.0 Z"/></g>
</svg>
