<svg viewBox="0 0 256 256" xmlns="http://www.w3.org/2000/svg" role="img" aria-label="Percent">
<defs><filter id="p-percent-m" x="-16%" y="-16%" width="132%" height="132%">
<feTurbulence type="fractalNoise" baseFrequency="0.0240 0.0310" numOctaves="2" seed="500" result="w"/>
<feDisplacementMap in="SourceGraphic" in2="w" scale="2.8" xChannelSelector="R" yChannelSelector="G" result="m"/>
<feTurbulence type="fractalNoise" baseFrequency="0.7" numOctaves="2" seed="934" result="g"/>
<feDisplacementMap in="m" in2="g" scale="0.9" xChannelSelector="R" yChannelSelector="G"/>
</filter>
<filter id="q-percent-m" x="-18%" y="-18%" width="136%" height="136%">
<feTurbulence type="fractalNoise" baseFrequency="0.0180 0.0260" numOctaves="2" seed="934" result="w"/>
<feDisplacementMap in="SourceGraphic" in2="w" scale="5.0" xChannelSelector="R" yChannelSelector="G"/>
</filter></defs>
<style>
.ink{fill:none;stroke:#141413;stroke-width:11;stroke-linecap:round;stroke-linejoin:round}
.ink-thin{fill:none;stroke:#141413;stroke-width:8.5;stroke-linecap:round;stroke-linejoin:round}
.solid{fill:#141413}
.paper{fill:#faf9f5}
.acc{fill:var(--acc,#d97757)}
.acc-line{fill:none;stroke:var(--acc,#d97757);stroke-width:8.5;stroke-linecap:round;stroke-linejoin:round}
</style>
<g filter="url(#q-percent-m)" opacity=".95"></g>
<g filter="url(#p-percent-m)"><path class="ink" d="M44.8,40.4 Q128.5,40.1 212.3,39.2 Q211.7,127.7 211.4,216.1 Q127.9,216.7 44.3,216.4 Q45.3,128.4 44.8,40.4 Z"/><path class="ink" d="M171.1,80.4 C156.5,96.2 98.4,159.3 83.9,175.1"/><path class="ink" d="M114.5,92.1 C114.6,94.8 113.5,97.2 112.3,99.7 C111.1,102.2 109.2,105.2 107.1,107.2 C105.1,109.2 102.5,110.6 100.1,111.7 C97.7,112.7 95.4,113.5 92.8,113.5 C90.1,113.4 86.8,112.7 84.1,111.6 C81.3,110.5 78.2,108.6 76.3,106.9 C74.3,105.1 73.3,103.7 72.2,101.1 C71.0,98.5 69.4,94.5 69.3,91.5 C69.1,88.6 69.9,85.9 71.2,83.5 C72.6,81.1 75.1,79.1 77.2,77.1 C79.3,75.2 81.2,73.0 83.8,71.9 C86.3,70.7 90.0,70.3 92.8,70.3 C95.5,70.2 97.9,70.6 100.3,71.5 C102.7,72.4 105.2,73.7 107.1,75.7 C109.0,77.7 110.6,80.7 111.9,83.5 C113.1,86.2 114.4,89.4 114.5,92.1 Z"/><path class="ink" d="M185.3,163.4 C185.5,166.1 186.0,169.3 184.9,172.0 C183.9,174.6 181.1,177.5 179.0,179.6 C177.0,181.6 175.1,182.8 172.7,184.0 C170.2,185.2 166.9,186.6 164.2,186.6 C161.4,186.6 158.8,185.2 156.1,184.1 C153.5,183.0 150.3,181.9 148.2,180.1 C146.1,178.2 144.5,175.6 143.6,172.8 C142.7,170.0 142.6,166.1 142.7,163.3 C142.7,160.4 142.9,158.1 143.8,155.7 C144.7,153.3 146.3,150.7 148.2,148.8 C150.1,146.8 152.4,145.2 155.1,144.2 C157.8,143.1 161.8,142.5 164.7,142.3 C167.6,142.1 169.9,142.0 172.4,143.0 C174.8,144.1 177.7,146.4 179.6,148.6 C181.5,150.8 182.7,153.7 183.7,156.2 C184.6,158.6 185.1,160.8 185.3,163.4 Z"/></g>
</svg>
