<svg width="32" height="32" viewBox="0 0 32 32" fill="none" xmlns="http://www.w3.org/2000/svg">
<rect x="1" y="1" width="30" height="30" rx="15" fill="url(#paint0_linear_5148_110923)"/>
<path d="M18.25 11.9987C18.2511 11.4146 18.025 10.853 17.6194 10.4325C17.2139 10.0121 16.6608 9.76589 16.077 9.74589C15.4933 9.72589 14.9246 9.9337 14.4913 10.3254C14.0579 10.7171 13.7939 11.2619 13.755 11.8447L13.75 11.9987V13.9987H12.25V11.9987C12.2483 11.0203 12.629 10.0801 13.3109 9.37848C13.9928 8.67691 14.9219 8.26962 15.9 8.24352C16.878 8.21743 17.8275 8.57459 18.5458 9.23879C19.2642 9.903 19.6945 10.8216 19.745 11.7987L19.75 11.9987V13.9987H21C21.2652 13.9987 21.5196 14.1041 21.7071 14.2916C21.8946 14.4791 22 14.7335 22 14.9987V21.9987C22 22.2639 21.8946 22.5183 21.7071 22.7058C21.5196 22.8934 21.2652 22.9987 21 22.9987H11C10.7348 22.9987 10.4804 22.8934 10.2929 22.7058C10.1054 22.5183 10 22.2639 10 21.9987V14.9987C10 14.7335 10.1054 14.4791 10.2929 14.2916C10.4804 14.1041 10.7348 13.9987 11 13.9987H18.25V11.9987Z" fill="#F2F2F2"/>
<defs>
<linearGradient id="paint0_linear_5148_110923" x1="28.8571" y1="26.7143" x2="6.89286" y2="4.75" gradientUnits="userSpaceOnUse">
<stop stop-color="#222222"/>
<stop offset="1" stop-color="#5D5C5C"/>
</linearGradient>
</defs>
</svg>
