<svg viewBox="0 0 256 256" role="img" aria-label="refrigerator">
  <g filter="url(#tex)">
    <g transform="rotate(-4 128 128)">
      <g transform="translate(5,4)">
        <rect fill="var(--sky)" x="54" y="26" width="148" height="204" rx="18"/>
        <rect fill="var(--denim)" x="54" y="26" width="72" height="204" rx="18"/>
        <rect fill="var(--butter)" x="150" y="52" width="12" height="40" rx="6"/>
        <rect fill="var(--butter)" x="98" y="52" width="12" height="40" rx="6"/>
        <rect fill="var(--butter)" x="98" y="128" width="12" height="52" rx="6"/>
        <rect fill="var(--butter)" x="150" y="128" width="12" height="52" rx="6"/>
      </g>
      <g>
        <rect class="i" x="54" y="26" width="148" height="204" rx="18"/>
        <path class="i" d="M128,26 L128,230"/>
        <path class="i2" d="M54,110 L202,110"/>
        <rect class="i2" x="98" y="52" width="12" height="40" rx="6"/>
        <rect class="i2" x="146" y="52" width="12" height="40" rx="6"/>
        <rect class="i2" x="98" y="130" width="12" height="52" rx="6"/>
        <rect class="i2" x="146" y="130" width="12" height="52" rx="6"/>
      </g>
    </g>
    <use href="#spark" x="30" y="90" fill="var(--butter)" stroke="var(--ink)" stroke-width="3"/>
  </g>
</svg>
