<svg viewBox="0 0 256 256" xmlns="http://www.w3.org/2000/svg" role="img" aria-label="Map">
<defs><filter id="p-map" x="-16%" y="-16%" width="132%" height="132%">
<feTurbulence type="fractalNoise" baseFrequency="0.0240 0.0310" numOctaves="2" seed="430" result="w"/>
<feDisplacementMap in="SourceGraphic" in2="w" scale="2.8" xChannelSelector="R" yChannelSelector="G" result="m"/>
<feTurbulence type="fractalNoise" baseFrequency="0.7" numOctaves="2" seed="804" result="g"/>
<feDisplacementMap in="m" in2="g" scale="0.9" xChannelSelector="R" yChannelSelector="G"/>
</filter>
<filter id="q-map" x="-18%" y="-18%" width="136%" height="136%">
<feTurbulence type="fractalNoise" baseFrequency="0.0180 0.0260" numOctaves="2" seed="804" result="w"/>
<feDisplacementMap in="SourceGraphic" in2="w" scale="5.0" xChannelSelector="R" yChannelSelector="G"/>
</filter></defs>
<style>
.ink{fill:none;stroke:#141413;stroke-width:11;stroke-linecap:round;stroke-linejoin:round}
.ink-thin{fill:none;stroke:#141413;stroke-width:8.5;stroke-linecap:round;stroke-linejoin:round}
.solid{fill:#141413}
.paper{fill:#faf9f5}
.acc{fill:var(--acc,#788c5d)}
.acc-line{fill:none;stroke:var(--acc,#788c5d);stroke-width:8.5;stroke-linecap:round;stroke-linejoin:round}
</style>
<g filter="url(#q-map)" opacity=".95"><path class="acc" d="M18.5,65.0 C23.7,52.0 77.8,45.3 87.8,45.7 C97.9,46.1 142.4,69.9 152.4,70.3 C162.4,70.7 215.7,41.0 221.0,50.9 C226.3,60.8 228.1,189.1 222.9,201.9 C217.6,214.7 161.0,222.0 151.0,221.7 C140.9,221.5 98.7,199.3 88.8,199.0 C78.8,198.8 24.0,228.7 18.7,218.6 C13.5,208.6 13.3,77.9 18.5,65.0 Z"/></g>
<g filter="url(#p-map)"><path class="ink" d="M26.1,57.3 C31.4,44.4 86.3,37.2 96.4,37.6 C106.5,38.0 150.6,62.2 160.6,62.5 C170.7,62.9 225.1,32.5 230.3,42.3 C235.5,52.2 235.7,181.0 230.4,193.9 C225.2,206.7 170.6,214.1 160.6,213.8 C150.5,213.4 106.4,189.7 96.3,189.4 C86.1,189.1 30.8,219.7 25.5,209.8 C20.3,199.9 20.8,70.2 26.1,57.3 Z"/><path class="ink-thin" d="M95.7,38.4 C95.6,63.7 95.4,164.6 95.3,189.9"/><path class="ink-thin" d="M159.4,62.9 C159.7,88.0 160.8,188.7 161.1,213.8"/><path class="ink" d="M58.6,168.5 C64.1,160.1 77.9,121.8 91.9,118.0 C105.9,114.2 125.5,151.0 142.7,146.0 C159.9,141.0 186.4,97.8 195.1,88.1"/></g>
</svg>
