<svg viewBox="0 0 256 256" xmlns="http://www.w3.org/2000/svg" role="img" aria-label="Solar">
<defs><filter id="p-solar" x="-16%" y="-16%" width="132%" height="132%">
<feTurbulence type="fractalNoise" baseFrequency="0.0240 0.0310" numOctaves="2" seed="626" result="w"/>
<feDisplacementMap in="SourceGraphic" in2="w" scale="2.8" xChannelSelector="R" yChannelSelector="G" result="m"/>
<feTurbulence type="fractalNoise" baseFrequency="0.7" numOctaves="2" seed="1168" result="g"/>
<feDisplacementMap in="m" in2="g" scale="0.9" xChannelSelector="R" yChannelSelector="G"/>
</filter>
<filter id="q-solar" x="-18%" y="-18%" width="136%" height="136%">
<feTurbulence type="fractalNoise" baseFrequency="0.0180 0.0260" numOctaves="2" seed="1168" result="w"/>
<feDisplacementMap in="SourceGraphic" in2="w" scale="5.0" xChannelSelector="R" yChannelSelector="G"/>
</filter></defs>
<style>
.ink{fill:none;stroke:#141413;stroke-width:11;stroke-linecap:round;stroke-linejoin:round}
.ink-thin{fill:none;stroke:#141413;stroke-width:8.5;stroke-linecap:round;stroke-linejoin:round}
.solid{fill:#141413}
.paper{fill:#faf9f5}
.acc{fill:var(--acc,#ebdbbc)}
.acc-line{fill:none;stroke:var(--acc,#ebdbbc);stroke-width:8.5;stroke-linecap:round;stroke-linejoin:round}
</style>
<g filter="url(#q-solar)" opacity=".95"><path class="acc" d="M29.5,175.5 Q57.8,123.1 87.6,71.6 Q152.1,72.0 216.7,72.8 Q186.8,124.2 158.6,176.6 Q94.1,175.0 29.5,175.5 Z"/></g>
<g filter="url(#p-solar)"><path class="ink" d="M37.9,167.9 Q67.2,116.1 96.2,64.1 Q160.0,63.5 223.9,63.8 Q195.5,116.0 166.7,168.0 Q102.3,167.8 37.9,167.9 Z"/><path class="ink-thin" d="M66.7,115.4 Q130.8,115.6 194.8,115.8"/><path class="ink-thin" d="M127.4,64.7 Q111.9,116.5 96.3,168.2"/><path class="ink-thin" d="M189.3,64.0 Q172.9,115.6 157.2,167.3"/><path class="ink" d="M102.5,167.2 C102.5,174.9 102.5,205.3 102.5,213.0"/><path class="ink" d="M64.1,219.0 C78.4,219.2 135.8,219.9 150.1,220.0"/><path class="ink" d="M111.8,57.7 C112.1,62.0 111.8,66.7 110.2,70.8 C108.6,74.8 105.5,78.7 102.2,81.9 C98.8,85.1 94.3,88.2 90.2,90.0 C86.2,91.8 82.0,92.8 77.9,92.6 C73.8,92.4 69.8,90.9 65.7,89.0 C61.6,87.2 56.3,84.6 53.2,81.6 C50.1,78.6 48.6,75.1 47.1,71.1 C45.6,67.1 44.4,62.2 44.2,57.8 C44.1,53.5 44.6,48.7 46.1,44.8 C47.6,40.8 50.4,37.0 53.4,34.0 C56.5,31.0 60.1,28.3 64.2,26.6 C68.4,25.0 73.9,24.0 78.4,24.1 C83.0,24.2 87.8,25.8 91.7,27.4 C95.6,29.0 98.9,30.9 101.8,33.8 C104.6,36.7 107.2,40.9 108.9,44.8 C110.6,48.8 111.6,53.4 111.8,57.7 Z"/></g>
</svg>
