<svg viewBox="0 0 256 256" xmlns="http://www.w3.org/2000/svg" role="img" aria-label="Water">
<defs><filter id="p-water" x="-16%" y="-16%" width="132%" height="132%">
<feTurbulence type="fractalNoise" baseFrequency="0.0240 0.0310" numOctaves="2" seed="731" result="w"/>
<feDisplacementMap in="SourceGraphic" in2="w" scale="2.8" xChannelSelector="R" yChannelSelector="G" result="m"/>
<feTurbulence type="fractalNoise" baseFrequency="0.7" numOctaves="2" seed="1363" result="g"/>
<feDisplacementMap in="m" in2="g" scale="0.9" xChannelSelector="R" yChannelSelector="G"/>
</filter>
<filter id="q-water" x="-18%" y="-18%" width="136%" height="136%">
<feTurbulence type="fractalNoise" baseFrequency="0.0180 0.0260" numOctaves="2" seed="1363" result="w"/>
<feDisplacementMap in="SourceGraphic" in2="w" scale="5.0" xChannelSelector="R" yChannelSelector="G"/>
</filter></defs>
<style>
.ink{fill:none;stroke:#141413;stroke-width:11;stroke-linecap:round;stroke-linejoin:round}
.ink-thin{fill:none;stroke:#141413;stroke-width:8.5;stroke-linecap:round;stroke-linejoin:round}
.solid{fill:#141413}
.paper{fill:#faf9f5}
.acc{fill:var(--acc,#bcd1ca)}
.acc-line{fill:none;stroke:var(--acc,#bcd1ca);stroke-width:8.5;stroke-linecap:round;stroke-linejoin:round}
</style>
<g filter="url(#q-water)" opacity=".95"><path class="acc" d="M119.4,34.1 C129.2,34.3 139.1,65.6 149.0,81.9 C158.9,98.2 174.5,116.1 178.6,131.9 C182.7,147.6 179.7,164.5 173.4,176.6 C167.2,188.7 150.1,198.7 141.1,204.6 C132.2,210.5 126.8,211.9 119.8,212.1 C112.8,212.2 107.7,211.6 98.9,205.7 C90.1,199.8 73.4,189.1 67.1,176.6 C60.8,164.1 57.2,146.8 61.2,130.9 C65.1,114.9 80.9,97.0 90.6,80.9 C100.3,64.8 109.7,33.9 119.4,34.1 Z"/></g>
<g filter="url(#p-water)"><path class="ink" d="M128.3,24.9 C138.0,25.0 147.9,57.6 157.4,74.2 C167.0,90.8 181.8,108.4 185.6,124.5 C189.3,140.5 185.7,158.3 179.8,170.5 C174.0,182.7 158.9,192.1 150.4,197.8 C141.9,203.4 136.0,204.4 128.8,204.3 C121.6,204.3 115.7,203.3 107.0,197.4 C98.3,191.5 82.7,181.5 76.6,169.1 C70.4,156.7 66.3,139.0 70.0,123.1 C73.8,107.2 89.3,90.3 99.0,74.0 C108.7,57.6 118.6,24.9 128.3,24.9 Z"/><path class="ink-thin" d="M56.2,229.1 C68.1,230.9 103.2,240.5 127.2,240.2 C151.3,239.8 188.3,229.1 200.5,226.9"/></g>
</svg>
